<?xml version="1.0" standalone="no"?>
<!DOCTYPE svg PUBLIC "-//W3C//DTD SVG 20010904//EN"
 "http://www.w3.org/TR/2001/REC-SVG-20010904/DTD/svg10.dtd">
<svg version="1.0" xmlns="http://www.w3.org/2000/svg"
 width="100.000000pt" height="100.000000pt" viewBox="0 0 100.000000 100.000000"
 preserveAspectRatio="xMidYMid meet">
<metadata>
Created by potrace 1.16, written by Peter Selinger 2001-2019
</metadata>
<g transform="translate(0.000000,100.000000) scale(0.100000,-0.100000)"
fill="#000000" stroke="none">
<path d="M90 500 l0 -500 120 0 120 0 2 234 3 234 169 -230 c94 -127 175 -232
181 -234 6 -3 64 -3 129 -2 l118 3 -159 215 c-87 118 -169 229 -181 247 l-23
32 173 238 c96 131 177 244 181 251 6 9 -20 12 -120 11 l-128 0 -170 -235
-170 -235 -3 236 -2 235 -120 0 -120 0 0 -500z"/>
</g>
</svg>
